<svg width="800" height="500" viewBox="0 0 800 500" xmlns="http://www.w3.org/2000/svg" role="img" aria-labelledby="heroTitle">
  <title id="heroTitle">Course launch dashboard illustration</title>
  <rect width="800" height="500" rx="32" fill="#eff6ff" />
  <rect x="72" y="80" width="356" height="320" rx="28" fill="#ffffff" stroke="#dbeafe" stroke-width="4" />
  <rect x="110" y="120" width="280" height="38" rx="12" fill="#dbeafe" />
  <rect x="110" y="180" width="220" height="20" rx="10" fill="#bfdbfe" />
  <rect x="110" y="220" width="180" height="20" rx="10" fill="#bfdbfe" />
  <rect x="110" y="260" width="160" height="20" rx="10" fill="#bfdbfe" />
  <rect x="110" y="310" width="180" height="20" rx="10" fill="#bfdbfe" />
  <circle cx="570" cy="210" r="110" fill="#2563eb" opacity="0.13" />
  <path d="M520 380c-30 0-54-24-54-54v-80c0-30 24-54 54-54h14c30 0 54 24 54 54v80c0 30-24 54-54 54h-14z" fill="#1d4ed8" />
  <rect x="538" y="232" width="40" height="96" rx="20" fill="#eff6ff" />
  <rect x="562" y="286" width="12" height="24" rx="6" fill="#2563eb" />
  <circle cx="572" cy="142" r="18" fill="#fbbf24" />
  <circle cx="500" cy="100" r="28" fill="#38bdf8" />
  <circle cx="620" cy="90" r="24" fill="#7c3aed" />
</svg>
